grf
version=1
nRows=6
nColumns=37
inDegrees=no
endheader
time	ground_force_1_vx	ground_force_1_vy	ground_force_1_vz	ground_force_1_px	ground_force_1_py	ground_force_1_pz	ground_moment_1_mx	ground_moment_1_my	ground_moment_1_mz	ground_force_2_vx	ground_force_2_vy	ground_force_2_vz	ground_force_2_px	ground_force_2_py	ground_force_2_pz	ground_moment_2_mx	ground_moment_2_my	ground_moment_2_mz	ground_force_3_vx	ground_force_3_vy	ground_force_3_vz	ground_force_3_px	ground_force_3_py	ground_force_3_pz	ground_moment_3_mx	ground_moment_3_my	ground_moment_3_mz	ground_force_4_vx	ground_force_4_vy	ground_force_4_vz	ground_force_4_px	ground_force_4_py	ground_force_4_pz	ground_moment_4_mx	ground_moment_4_my	ground_moment_4_mz
      1.71000000	      0.00000000	     -0.00000000	      0.00000000	      0.00000000	      0.00000000	      0.00000000	      0.00000000	      0.00000000	      0.00000000	      4.74399519	     11.74938965	   -329.54824829	   -333.90718884	  -1076.68136219	      0.00000000	      0.00000000	      0.00000000	   3312.49237647	      4.35502623	    -16.57182350	   -319.83901978	   -332.61562915	   -760.08176913	      0.00000000	      0.00000000	     -0.00000000	  -3082.70081954	      0.00000000	     -0.00000000	      0.00000000	      0.00000000	      0.00000000	      0.00000000	      0.00000000	      0.00000000	      0.00000000
      1.72000000	      0.00000000	     -0.00000000	      0.00000000	      0.00000000	      0.00000000	      0.00000000	      0.00000000	      0.00000000	      0.00000000	      4.75878239	     11.49782181	   -326.99914551	   -332.56221179	  -1076.50016668	      0.00000000	      0.00000000	      0.00000000	   3297.10208818	      4.62089780	    -16.07454722	   -319.77600098	   -331.38492062	   -759.88749862	      0.00000000	      0.00000000	     -0.00000000	  -2982.13091973	      0.00000000	     -0.00000000	      0.00000000	      0.00000000	      0.00000000	      0.00000000	      0.00000000	      0.00000000	      0.00000000
      1.73000000	      0.00000000	     -0.00000000	      0.00000000	      0.00000000	      0.00000000	      0.00000000	      0.00000000	      0.00000000	      0.00000000	      4.56458521	     11.87659740	   -325.26403809	   -331.51516853	  -1076.15199528	      0.00000000	      0.00000000	      0.00000000	   3192.02404622	      4.79808855	    -16.32416386	   -318.41110229	   -331.26573217	   -758.56907543	      0.00000000	      0.00000000	     -0.00000000	  -3037.63608150	      0.00000000	     -0.00000000	      0.00000000	      0.00000000	      0.00000000	      0.00000000	      0.00000000	      0.00000000	      0.00000000
      1.74000000	      0.00000000	     -0.00000000	      0.00000000	      0.00000000	      0.00000000	      0.00000000	      0.00000000	      0.00000000	      0.00000000	      4.01805449	     13.10574722	   -326.69146729	   -331.23274320	  -1075.93602164	      0.00000000	      0.00000000	      0.00000000	   3283.37165644	      4.35427431	    -15.90161076	   -316.04086304	   -330.78888783	   -761.13287481	      0.00000000	     -0.00000000	     -0.00000000	  -3031.85457886	      0.00000000	     -0.00000000	      0.00000000	      0.00000000	      0.00000000	      0.00000000	      0.00000000	      0.00000000	      0.00000000
      1.75000000	      0.00000000	     -0.00000000	      0.00000000	      0.00000000	      0.00000000	      0.00000000	      0.00000000	      0.00000000	      0.00000000	      3.20808244	     13.46567631	   -326.36593628	   -330.84131812	  -1075.80394795	      0.00000000	      0.00000000	      0.00000000	   3614.92670706	      3.47427398	    -15.62207062	   -314.29373169	   -330.05218589	   -761.97893157	      0.00000000	      0.00000000	     -0.00000000	  -3118.55160619	      0.00000000	     -0.00000000	      0.00000000	      0.00000000	      0.00000000	      0.00000000	      0.00000000	      0.00000000	      0.00000000
      1.76000000	      0.00000000	     -0.00000000	      0.00000000	      0.00000000	      0.00000000	      0.00000000	      0.00000000	      0.00000000	      0.00000000	      2.04847717	     13.47549820	   -327.07125854	   -329.41722651	  -1076.43399614	      0.00000000	      0.00000000	      0.00000000	   3514.40524373	      3.34294354	    -15.09253054	   -314.33309937	   -329.12393250	   -761.05808125	      0.00000000	      0.00000000	     -0.00000000	  -3197.85461632	      0.00000000	     -0.00000000	      0.00000000	      0.00000000	      0.00000000	      0.00000000	      0.00000000	      0.00000000	      0.00000000
